<mxfile host="65bd71144e">
    <diagram id="3XvZ26-4xioiCNoU9vYR" name="Strona-1">
        <mxGraphModel dx="1692" dy="1618" grid="1" gridSize="10" guides="1" tooltips="1" connect="1" arrows="1" fold="1" page="0" pageScale="1" pageWidth="827" pageHeight="1169" background="none" math="0" shadow="0">
            <root>
                <mxCell id="0"/>
                <mxCell id="1" parent="0"/>
                <mxCell id="NZ25SMVNL7PuG4ug03Dv-69" style="edgeStyle=orthogonalEdgeStyle;rounded=0;orthogonalLoop=1;jettySize=auto;html=1;exitX=0.5;exitY=0;exitDx=0;exitDy=0;entryX=0.5;entryY=1;entryDx=0;entryDy=0;endArrow=blockThin;endFill=0;" parent="1" source="NZ25SMVNL7PuG4ug03Dv-22" target="NZ25SMVNL7PuG4ug03Dv-65" edge="1">
                    <mxGeometry relative="1" as="geometry">
                        <Array as="points">
                            <mxPoint x="400" y="-40"/>
                        </Array>
                    </mxGeometry>
                </mxCell>
                <mxCell id="NZ25SMVNL7PuG4ug03Dv-82" style="edgeStyle=orthogonalEdgeStyle;rounded=0;orthogonalLoop=1;jettySize=auto;html=1;exitX=1;exitY=0.5;exitDx=0;exitDy=0;entryX=0;entryY=0.5;entryDx=0;entryDy=0;entryPerimeter=0;startArrow=none;startFill=0;endArrow=none;endFill=0;dashed=1;dashPattern=1 2;" parent="1" source="NZ25SMVNL7PuG4ug03Dv-22" target="NZ25SMVNL7PuG4ug03Dv-36" edge="1">
                    <mxGeometry relative="1" as="geometry">
                        <Array as="points">
                            <mxPoint x="740" y="20"/>
                        </Array>
                    </mxGeometry>
                </mxCell>
                <mxCell id="NZ25SMVNL7PuG4ug03Dv-22" value="Form1" style="swimlane;fontStyle=1;align=center;verticalAlign=top;childLayout=stackLayout;horizontal=1;startSize=26;horizontalStack=0;resizeParent=1;resizeParentMax=0;resizeLast=0;collapsible=0;marginBottom=0;expand=1;editable=1;movable=1;resizable=1;rotatable=1;deletable=1;connectable=1;noLabel=0;fillColor=default;" parent="1" vertex="1">
                    <mxGeometry x="320" y="-40" width="420" height="922" as="geometry">
                        <mxRectangle x="270" y="-20" width="70" height="30" as="alternateBounds"/>
                    </mxGeometry>
                </mxCell>
                <mxCell id="NZ25SMVNL7PuG4ug03Dv-23" value="-components : IContainer = null" style="text;strokeColor=none;fillColor=none;align=left;verticalAlign=top;spacingLeft=4;spacingRight=4;overflow=hidden;rotatable=0;points=[[0,0.5],[1,0.5]];portConstraint=eastwest;" parent="NZ25SMVNL7PuG4ug03Dv-22" vertex="1">
                    <mxGeometry y="26" width="420" height="26" as="geometry"/>
                </mxCell>
                <mxCell id="LiO7IJNXpES9zIa_KLiR-7" value="-bmp : Bitmap = null" style="text;strokeColor=none;fillColor=none;align=left;verticalAlign=top;spacingLeft=4;spacingRight=4;overflow=hidden;rotatable=0;points=[[0,0.5],[1,0.5]];portConstraint=eastwest;" parent="NZ25SMVNL7PuG4ug03Dv-22" vertex="1">
                    <mxGeometry y="52" width="420" height="26" as="geometry"/>
                </mxCell>
                <mxCell id="LiO7IJNXpES9zIa_KLiR-8" value="-theText: string = string.Empty" style="text;strokeColor=none;fillColor=none;align=left;verticalAlign=top;spacingLeft=4;spacingRight=4;overflow=hidden;rotatable=0;points=[[0,0.5],[1,0.5]];portConstraint=eastwest;" parent="NZ25SMVNL7PuG4ug03Dv-22" vertex="1">
                    <mxGeometry y="78" width="420" height="26" as="geometry"/>
                </mxCell>
                <mxCell id="14" value="-maxChars: int = 0" style="text;strokeColor=none;fillColor=none;align=left;verticalAlign=top;spacingLeft=4;spacingRight=4;overflow=hidden;rotatable=0;points=[[0,0.5],[1,0.5]];portConstraint=eastwest;" vertex="1" parent="NZ25SMVNL7PuG4ug03Dv-22">
                    <mxGeometry y="104" width="420" height="26" as="geometry"/>
                </mxCell>
                <mxCell id="16" value="-textBox1: TextBox" style="text;strokeColor=none;fillColor=none;align=left;verticalAlign=top;spacingLeft=4;spacingRight=4;overflow=hidden;rotatable=0;points=[[0,0.5],[1,0.5]];portConstraint=eastwest;" vertex="1" parent="NZ25SMVNL7PuG4ug03Dv-22">
                    <mxGeometry y="130" width="420" height="26" as="geometry"/>
                </mxCell>
                <mxCell id="23" value="-pictureBox1: PictureBox" style="text;strokeColor=none;fillColor=none;align=left;verticalAlign=top;spacingLeft=4;spacingRight=4;overflow=hidden;rotatable=0;points=[[0,0.5],[1,0.5]];portConstraint=eastwest;" vertex="1" parent="NZ25SMVNL7PuG4ug03Dv-22">
                    <mxGeometry y="156" width="420" height="26" as="geometry"/>
                </mxCell>
                <mxCell id="29" value="-groupBox1: GroupBox" style="text;strokeColor=none;fillColor=none;align=left;verticalAlign=top;spacingLeft=4;spacingRight=4;overflow=hidden;rotatable=0;points=[[0,0.5],[1,0.5]];portConstraint=eastwest;" vertex="1" parent="NZ25SMVNL7PuG4ug03Dv-22">
                    <mxGeometry y="182" width="420" height="26" as="geometry"/>
                </mxCell>
                <mxCell id="35" value="-groupBox2: GroupBox" style="text;strokeColor=none;fillColor=none;align=left;verticalAlign=top;spacingLeft=4;spacingRight=4;overflow=hidden;rotatable=0;points=[[0,0.5],[1,0.5]];portConstraint=eastwest;" vertex="1" parent="NZ25SMVNL7PuG4ug03Dv-22">
                    <mxGeometry y="208" width="420" height="26" as="geometry"/>
                </mxCell>
                <mxCell id="34" value="-groupBox3: GroupBox" style="text;strokeColor=none;fillColor=none;align=left;verticalAlign=top;spacingLeft=4;spacingRight=4;overflow=hidden;rotatable=0;points=[[0,0.5],[1,0.5]];portConstraint=eastwest;" vertex="1" parent="NZ25SMVNL7PuG4ug03Dv-22">
                    <mxGeometry y="234" width="420" height="26" as="geometry"/>
                </mxCell>
                <mxCell id="33" value="-label1: Label" style="text;strokeColor=none;fillColor=none;align=left;verticalAlign=top;spacingLeft=4;spacingRight=4;overflow=hidden;rotatable=0;points=[[0,0.5],[1,0.5]];portConstraint=eastwest;" vertex="1" parent="NZ25SMVNL7PuG4ug03Dv-22">
                    <mxGeometry y="260" width="420" height="26" as="geometry"/>
                </mxCell>
                <mxCell id="32" value="-label2: Label" style="text;strokeColor=none;fillColor=none;align=left;verticalAlign=top;spacingLeft=4;spacingRight=4;overflow=hidden;rotatable=0;points=[[0,0.5],[1,0.5]];portConstraint=eastwest;" vertex="1" parent="NZ25SMVNL7PuG4ug03Dv-22">
                    <mxGeometry y="286" width="420" height="26" as="geometry"/>
                </mxCell>
                <mxCell id="31" value="-label3: Label" style="text;strokeColor=none;fillColor=none;align=left;verticalAlign=top;spacingLeft=4;spacingRight=4;overflow=hidden;rotatable=0;points=[[0,0.5],[1,0.5]];portConstraint=eastwest;" vertex="1" parent="NZ25SMVNL7PuG4ug03Dv-22">
                    <mxGeometry y="312" width="420" height="26" as="geometry"/>
                </mxCell>
                <mxCell id="30" value="-label4: Label" style="text;strokeColor=none;fillColor=none;align=left;verticalAlign=top;spacingLeft=4;spacingRight=4;overflow=hidden;rotatable=0;points=[[0,0.5],[1,0.5]];portConstraint=eastwest;" vertex="1" parent="NZ25SMVNL7PuG4ug03Dv-22">
                    <mxGeometry y="338" width="420" height="26" as="geometry"/>
                </mxCell>
                <mxCell id="28" value="-label5: Label" style="text;strokeColor=none;fillColor=none;align=left;verticalAlign=top;spacingLeft=4;spacingRight=4;overflow=hidden;rotatable=0;points=[[0,0.5],[1,0.5]];portConstraint=eastwest;" vertex="1" parent="NZ25SMVNL7PuG4ug03Dv-22">
                    <mxGeometry y="364" width="420" height="26" as="geometry"/>
                </mxCell>
                <mxCell id="27" value="-label6: Label" style="text;strokeColor=none;fillColor=none;align=left;verticalAlign=top;spacingLeft=4;spacingRight=4;overflow=hidden;rotatable=0;points=[[0,0.5],[1,0.5]];portConstraint=eastwest;" vertex="1" parent="NZ25SMVNL7PuG4ug03Dv-22">
                    <mxGeometry y="390" width="420" height="26" as="geometry"/>
                </mxCell>
                <mxCell id="26" value="-label7: Label" style="text;strokeColor=none;fillColor=none;align=left;verticalAlign=top;spacingLeft=4;spacingRight=4;overflow=hidden;rotatable=0;points=[[0,0.5],[1,0.5]];portConstraint=eastwest;" vertex="1" parent="NZ25SMVNL7PuG4ug03Dv-22">
                    <mxGeometry y="416" width="420" height="26" as="geometry"/>
                </mxCell>
                <mxCell id="25" value="-label8: Label" style="text;strokeColor=none;fillColor=none;align=left;verticalAlign=top;spacingLeft=4;spacingRight=4;overflow=hidden;rotatable=0;points=[[0,0.5],[1,0.5]];portConstraint=eastwest;" vertex="1" parent="NZ25SMVNL7PuG4ug03Dv-22">
                    <mxGeometry y="442" width="420" height="26" as="geometry"/>
                </mxCell>
                <mxCell id="24" value="-btn_LoadImg: Button" style="text;strokeColor=none;fillColor=none;align=left;verticalAlign=top;spacingLeft=4;spacingRight=4;overflow=hidden;rotatable=0;points=[[0,0.5],[1,0.5]];portConstraint=eastwest;" vertex="1" parent="NZ25SMVNL7PuG4ug03Dv-22">
                    <mxGeometry y="468" width="420" height="26" as="geometry"/>
                </mxCell>
                <mxCell id="20" value="-btn_Clear: Button" style="text;strokeColor=none;fillColor=none;align=left;verticalAlign=top;spacingLeft=4;spacingRight=4;overflow=hidden;rotatable=0;points=[[0,0.5],[1,0.5]];portConstraint=eastwest;" vertex="1" parent="NZ25SMVNL7PuG4ug03Dv-22">
                    <mxGeometry y="494" width="420" height="26" as="geometry"/>
                </mxCell>
                <mxCell id="22" value="-btn_Export: Button" style="text;strokeColor=none;fillColor=none;align=left;verticalAlign=top;spacingLeft=4;spacingRight=4;overflow=hidden;rotatable=0;points=[[0,0.5],[1,0.5]];portConstraint=eastwest;" vertex="1" parent="NZ25SMVNL7PuG4ug03Dv-22">
                    <mxGeometry y="520" width="420" height="26" as="geometry"/>
                </mxCell>
                <mxCell id="21" value="-btn_Encode: Button" style="text;strokeColor=none;fillColor=none;align=left;verticalAlign=top;spacingLeft=4;spacingRight=4;overflow=hidden;rotatable=0;points=[[0,0.5],[1,0.5]];portConstraint=eastwest;" vertex="1" parent="NZ25SMVNL7PuG4ug03Dv-22">
                    <mxGeometry y="546" width="420" height="26" as="geometry"/>
                </mxCell>
                <mxCell id="18" value="-btn_Decode: Button" style="text;strokeColor=none;fillColor=none;align=left;verticalAlign=top;spacingLeft=4;spacingRight=4;overflow=hidden;rotatable=0;points=[[0,0.5],[1,0.5]];portConstraint=eastwest;" vertex="1" parent="NZ25SMVNL7PuG4ug03Dv-22">
                    <mxGeometry y="572" width="420" height="26" as="geometry"/>
                </mxCell>
                <mxCell id="19" value="-btn_Author: Button" style="text;strokeColor=none;fillColor=none;align=left;verticalAlign=top;spacingLeft=4;spacingRight=4;overflow=hidden;rotatable=0;points=[[0,0.5],[1,0.5]];portConstraint=eastwest;" vertex="1" parent="NZ25SMVNL7PuG4ug03Dv-22">
                    <mxGeometry y="598" width="420" height="26" as="geometry"/>
                </mxCell>
                <mxCell id="NZ25SMVNL7PuG4ug03Dv-24" value="" style="line;strokeWidth=1;fillColor=none;align=left;verticalAlign=middle;spacingTop=-1;spacingLeft=3;spacingRight=3;rotatable=0;labelPosition=right;points=[];portConstraint=eastwest;strokeColor=inherit;" parent="NZ25SMVNL7PuG4ug03Dv-22" vertex="1">
                    <mxGeometry y="624" width="420" height="8" as="geometry"/>
                </mxCell>
                <mxCell id="NZ25SMVNL7PuG4ug03Dv-25" value="#Dispose(disposing : bool) : void" style="text;strokeColor=none;fillColor=none;align=left;verticalAlign=top;spacingLeft=4;spacingRight=4;overflow=hidden;rotatable=0;points=[[0,0.5],[1,0.5]];portConstraint=eastwest;" parent="NZ25SMVNL7PuG4ug03Dv-22" vertex="1">
                    <mxGeometry y="632" width="420" height="26" as="geometry"/>
                </mxCell>
                <mxCell id="NZ25SMVNL7PuG4ug03Dv-63" value="-InitializeComponent() : void" style="text;strokeColor=none;fillColor=none;align=left;verticalAlign=top;spacingLeft=4;spacingRight=4;overflow=hidden;rotatable=0;points=[[0,0.5],[1,0.5]];portConstraint=eastwest;" parent="NZ25SMVNL7PuG4ug03Dv-22" vertex="1">
                    <mxGeometry y="658" width="420" height="24" as="geometry"/>
                </mxCell>
                <mxCell id="15" value="-GetMaxCodingLength(bmp : Bitmap) : int" style="text;strokeColor=none;fillColor=none;align=left;verticalAlign=top;spacingLeft=4;spacingRight=4;overflow=hidden;rotatable=0;points=[[0,0.5],[1,0.5]];portConstraint=eastwest;" vertex="1" parent="NZ25SMVNL7PuG4ug03Dv-22">
                    <mxGeometry y="682" width="420" height="24" as="geometry"/>
                </mxCell>
                <mxCell id="LiO7IJNXpES9zIa_KLiR-10" value="" style="line;strokeWidth=1;fillColor=none;align=left;verticalAlign=middle;spacingTop=-1;spacingLeft=3;spacingRight=3;rotatable=0;labelPosition=right;points=[];portConstraint=eastwest;strokeColor=inherit;" parent="NZ25SMVNL7PuG4ug03Dv-22" vertex="1">
                    <mxGeometry y="706" width="420" height="8" as="geometry"/>
                </mxCell>
                <mxCell id="LiO7IJNXpES9zIa_KLiR-12" value="&lt;&lt;event&gt;&gt; -FormClosed(sender : object, e : FormClosedEventArgs) : void" style="text;strokeColor=none;fillColor=none;align=left;verticalAlign=top;spacingLeft=4;spacingRight=4;overflow=hidden;rotatable=0;points=[[0,0.5],[1,0.5]];portConstraint=eastwest;" parent="NZ25SMVNL7PuG4ug03Dv-22" vertex="1">
                    <mxGeometry y="714" width="420" height="26" as="geometry"/>
                </mxCell>
                <mxCell id="6" value="&lt;&lt;event&gt;&gt; -Btn_LoadImg_Click(sender : object, e : EventArgs) : void" style="text;strokeColor=none;fillColor=none;align=left;verticalAlign=top;spacingLeft=4;spacingRight=4;overflow=hidden;rotatable=0;points=[[0,0.5],[1,0.5]];portConstraint=eastwest;" vertex="1" parent="NZ25SMVNL7PuG4ug03Dv-22">
                    <mxGeometry y="740" width="420" height="26" as="geometry"/>
                </mxCell>
                <mxCell id="10" value="&lt;&lt;event&gt;&gt; -Btn_Export_Click(sender : object, e : EventArgs) : void" style="text;strokeColor=none;fillColor=none;align=left;verticalAlign=top;spacingLeft=4;spacingRight=4;overflow=hidden;rotatable=0;points=[[0,0.5],[1,0.5]];portConstraint=eastwest;" vertex="1" parent="NZ25SMVNL7PuG4ug03Dv-22">
                    <mxGeometry y="766" width="420" height="26" as="geometry"/>
                </mxCell>
                <mxCell id="9" value="&lt;&lt;event&gt;&gt; -Btn_Encode_Click(sender : object, e : EventArgs) : void" style="text;strokeColor=none;fillColor=none;align=left;verticalAlign=top;spacingLeft=4;spacingRight=4;overflow=hidden;rotatable=0;points=[[0,0.5],[1,0.5]];portConstraint=eastwest;" vertex="1" parent="NZ25SMVNL7PuG4ug03Dv-22">
                    <mxGeometry y="792" width="420" height="26" as="geometry"/>
                </mxCell>
                <mxCell id="7" value="&lt;&lt;event&gt;&gt; -Btn_Decode_Click(sender : object, e : EventArgs) : void" style="text;strokeColor=none;fillColor=none;align=left;verticalAlign=top;spacingLeft=4;spacingRight=4;overflow=hidden;rotatable=0;points=[[0,0.5],[1,0.5]];portConstraint=eastwest;" vertex="1" parent="NZ25SMVNL7PuG4ug03Dv-22">
                    <mxGeometry y="818" width="420" height="26" as="geometry"/>
                </mxCell>
                <mxCell id="11" value="&lt;&lt;event&gt;&gt; -Btn_Clear_Click(sender : object, e : EventArgs) : void" style="text;strokeColor=none;fillColor=none;align=left;verticalAlign=top;spacingLeft=4;spacingRight=4;overflow=hidden;rotatable=0;points=[[0,0.5],[1,0.5]];portConstraint=eastwest;" vertex="1" parent="NZ25SMVNL7PuG4ug03Dv-22">
                    <mxGeometry y="844" width="420" height="26" as="geometry"/>
                </mxCell>
                <mxCell id="12" value="&lt;&lt;event&gt;&gt; -Btn_Author_Click(sender : object, e : EventArgs) : void" style="text;strokeColor=none;fillColor=none;align=left;verticalAlign=top;spacingLeft=4;spacingRight=4;overflow=hidden;rotatable=0;points=[[0,0.5],[1,0.5]];portConstraint=eastwest;" vertex="1" parent="NZ25SMVNL7PuG4ug03Dv-22">
                    <mxGeometry y="870" width="420" height="26" as="geometry"/>
                </mxCell>
                <mxCell id="13" value="&lt;&lt;event&gt;&gt; -TextBox1_TextChanged(sender : object, e : EventArgs) : void" style="text;strokeColor=none;fillColor=none;align=left;verticalAlign=top;spacingLeft=4;spacingRight=4;overflow=hidden;rotatable=0;points=[[0,0.5],[1,0.5]];portConstraint=eastwest;" vertex="1" parent="NZ25SMVNL7PuG4ug03Dv-22">
                    <mxGeometry y="896" width="420" height="26" as="geometry"/>
                </mxCell>
                <mxCell id="NZ25SMVNL7PuG4ug03Dv-71" style="edgeStyle=orthogonalEdgeStyle;rounded=0;orthogonalLoop=1;jettySize=auto;html=1;exitX=1;exitY=0.25;exitDx=0;exitDy=0;endArrow=none;endFill=0;startArrow=open;startFill=0;dashed=1;dashPattern=8 8;" parent="1" source="NZ25SMVNL7PuG4ug03Dv-33" edge="1">
                    <mxGeometry relative="1" as="geometry">
                        <mxPoint x="320" y="-23" as="targetPoint"/>
                    </mxGeometry>
                </mxCell>
                <mxCell id="NZ25SMVNL7PuG4ug03Dv-33" value="&lt;p style=&quot;margin:0px;margin-top:4px;text-align:center;&quot;&gt;&lt;i&gt;&amp;lt;&amp;lt;static&amp;gt;&amp;gt;&lt;/i&gt;&lt;br&gt;&lt;b&gt;Program&lt;/b&gt;&lt;/p&gt;&lt;hr size=&quot;1&quot;&gt;&lt;p style=&quot;margin:0px;margin-left:4px;&quot;&gt;&lt;u&gt;-Main(): void&lt;/u&gt;&lt;br&gt;&lt;/p&gt;" style="verticalAlign=top;align=left;overflow=fill;fontSize=12;fontFamily=Helvetica;html=1;rounded=0;comic=0;gradientColor=none;" parent="1" vertex="1">
                    <mxGeometry x="80" y="20" width="160" height="70" as="geometry"/>
                </mxCell>
                <mxCell id="NZ25SMVNL7PuG4ug03Dv-36" value="W projekcie klasa ta jest rozbita na dwa pliki z uwagi na modyfikator &lt;i&gt;partial&lt;/i&gt;: &lt;b&gt;Form1.cs&lt;/b&gt; oraz &lt;b&gt;Form1.Designer.cs&lt;/b&gt;" style="shape=note2;boundedLbl=1;size=15;verticalAlign=top;align=center;rounded=0;comic=0;gradientColor=none;movable=1;resizable=1;rotatable=1;deletable=1;editable=1;connectable=1;labelBackgroundColor=none;labelBorderColor=none;html=1;whiteSpace=wrap;" parent="1" vertex="1">
                    <mxGeometry x="840" y="-10" width="320" height="60" as="geometry"/>
                </mxCell>
                <mxCell id="NZ25SMVNL7PuG4ug03Dv-65" value="Form" style="swimlane;fontStyle=1;align=center;verticalAlign=top;childLayout=stackLayout;horizontal=1;startSize=26;horizontalStack=0;resizeParent=1;resizeParentMax=0;resizeLast=0;collapsible=0;marginBottom=0;rounded=0;labelBackgroundColor=none;labelBorderColor=none;comic=0;fillColor=default;gradientColor=none;html=1;" parent="1" vertex="1">
                    <mxGeometry x="320" y="-180" width="160" height="60" as="geometry"/>
                </mxCell>
                <mxCell id="NZ25SMVNL7PuG4ug03Dv-76" value="&lt;span style=&quot;font-weight: normal;&quot;&gt;&lt;i&gt;&amp;lt;&amp;lt;static&amp;gt;&amp;gt;&lt;/i&gt;&lt;/span&gt;&lt;br&gt;Steganosaur" style="swimlane;fontStyle=1;align=center;verticalAlign=top;childLayout=stackLayout;horizontal=1;startSize=40;horizontalStack=0;resizeParent=1;resizeParentMax=0;resizeLast=0;collapsible=0;marginBottom=0;rounded=0;labelBackgroundColor=none;labelBorderColor=none;comic=0;fillColor=default;gradientColor=none;html=1;swimlaneLine=1;" parent="1" vertex="1">
                    <mxGeometry x="870" y="180" width="260" height="118" as="geometry"/>
                </mxCell>
                <mxCell id="NZ25SMVNL7PuG4ug03Dv-79" value="&lt;u&gt;+Encode(text : string, Bitmap bmp) : Bitmap&lt;/u&gt;" style="text;strokeColor=none;fillColor=none;align=left;verticalAlign=top;spacingLeft=4;spacingRight=4;overflow=hidden;rotatable=0;points=[[0,0.5],[1,0.5]];portConstraint=eastwest;rounded=0;labelBackgroundColor=none;labelBorderColor=none;comic=0;html=1;" parent="NZ25SMVNL7PuG4ug03Dv-76" vertex="1">
                    <mxGeometry y="40" width="260" height="26" as="geometry"/>
                </mxCell>
                <mxCell id="NZ25SMVNL7PuG4ug03Dv-80" value="&lt;u&gt;+Decode(bmp : Bitmap) : string&lt;/u&gt;" style="text;strokeColor=none;fillColor=none;align=left;verticalAlign=top;spacingLeft=4;spacingRight=4;overflow=hidden;rotatable=0;points=[[0,0.5],[1,0.5]];portConstraint=eastwest;rounded=0;labelBackgroundColor=none;labelBorderColor=none;comic=0;html=1;" parent="NZ25SMVNL7PuG4ug03Dv-76" vertex="1">
                    <mxGeometry y="66" width="260" height="26" as="geometry"/>
                </mxCell>
                <mxCell id="NZ25SMVNL7PuG4ug03Dv-81" value="&lt;u&gt;-ReverseBits(n : int) : int&lt;/u&gt;" style="text;strokeColor=none;fillColor=none;align=left;verticalAlign=top;spacingLeft=4;spacingRight=4;overflow=hidden;rotatable=0;points=[[0,0.5],[1,0.5]];portConstraint=eastwest;rounded=0;labelBackgroundColor=none;labelBorderColor=none;comic=0;html=1;" parent="NZ25SMVNL7PuG4ug03Dv-76" vertex="1">
                    <mxGeometry y="92" width="260" height="26" as="geometry"/>
                </mxCell>
                <mxCell id="LiO7IJNXpES9zIa_KLiR-5" style="edgeStyle=orthogonalEdgeStyle;rounded=0;orthogonalLoop=1;jettySize=auto;html=1;exitX=0.5;exitY=1;exitDx=0;exitDy=0;dashed=1;dashPattern=8 8;strokeWidth=1;startArrow=open;startFill=0;endArrow=none;endFill=0;entryX=0.75;entryY=0;entryDx=0;entryDy=0;" parent="1" source="LiO7IJNXpES9zIa_KLiR-4" target="NZ25SMVNL7PuG4ug03Dv-22" edge="1">
                    <mxGeometry relative="1" as="geometry">
                        <mxPoint x="585" y="-60" as="targetPoint"/>
                        <Array as="points">
                            <mxPoint x="615" y="-40"/>
                        </Array>
                    </mxGeometry>
                </mxCell>
                <mxCell id="LiO7IJNXpES9zIa_KLiR-4" value="&lt;p style=&quot;margin:0px;margin-top:4px;text-align:center;&quot;&gt;&lt;i&gt;&amp;lt;&amp;lt;Interface&amp;gt;&amp;gt;&lt;/i&gt;&lt;br&gt;&lt;b&gt;IContainer&lt;/b&gt;&lt;/p&gt;&lt;hr size=&quot;1&quot;&gt;&lt;p style=&quot;margin:0px;margin-left:4px;&quot;&gt;&lt;/p&gt;&lt;p style=&quot;margin:0px;margin-left:4px;&quot;&gt;&lt;br&gt;&lt;/p&gt;" style="verticalAlign=top;align=left;overflow=fill;fontSize=12;fontFamily=Helvetica;html=1;" parent="1" vertex="1">
                    <mxGeometry x="550" y="-180" width="130" height="60" as="geometry"/>
                </mxCell>
                <mxCell id="36" style="edgeStyle=none;html=1;exitX=0;exitY=0.5;exitDx=0;exitDy=0;entryX=1;entryY=0.5;entryDx=0;entryDy=0;dashed=1;endArrow=open;endFill=0;dashPattern=8 8;" edge="1" parent="1" source="NZ25SMVNL7PuG4ug03Dv-79" target="33">
                    <mxGeometry relative="1" as="geometry"/>
                </mxCell>
            </root>
        </mxGraphModel>
    </diagram>
</mxfile>